<?xml version="1.0" encoding="utf-8"?>
<!-- Generator: Adobe Illustrator 26.0.1, SVG Export Plug-In . SVG Version: 6.00 Build 0)  -->
<svg version="1.1" id="Calque_1" xmlns="http://www.w3.org/2000/svg" xmlns:xlink="http://www.w3.org/1999/xlink" x="0px" y="0px"
	 viewBox="0 0 595 595" style="enable-background:new 0 0 595 595;" xml:space="preserve">
<style type="text/css">
	.st0{fill:#0022fd;}
	.st1{font-family:"Roboto", sans-serif;}
	.st2{font-size:100px;}
</style>
<g>
	<g>
		<path class="st0" d="M124.55,254.65l299.47-2.87c0,0,7.01,1.25,6.39,9.07c-0.52,7.73-9.07,8.99-9.07,8.99L124.55,254.65
			 M188,224.92l230.62-4.41c0,0,6.83,1.25,6.15,8.79c-0.37,8.1-8.92,9.36-8.92,9.36L188,224.92 M180.54,287.86l230.46-4.6
			c0,0,6.83,1.25,6.31,8.97c-0.54,7.91-8.92,9.36-8.92,9.36L180.54,287.86 M241.89,199.99l161.03-3.14c0,0,4.76,0.93,4.46,6.47
			c-0.36,5.27-6.39,6.14-6.39,6.14L241.89,199.99 M224.28,313.88l161.11-3.05c0,0,4.76,0.93,4.48,6.29
			c-0.38,5.46-6.33,6.42-6.33,6.42L224.28,313.88 M301.53,179.74l73.28-1.55c0,0,2.25,0.32,1.87,3.14
			c-0.06,2.37-2.96,2.94-2.96,2.94L301.53,179.74 M279.87,334.07l73.3-1.73c0,0,2.34,0.42,1.98,3.05c-0.18,2.64-3.16,3.12-3.16,3.12
			L279.87,334.07z"/>
	</g>
</g>
<text transform="matrix(0.7187 0 0 1 135.7901 432.4995)" class="st0 st1 st2">Unitraf ERP</text>
</svg>
